<svg width="103.2" height="168.2" version="1.1" viewBox="0 0 103.2 168.2" xmlns="http://www.w3.org/2000/svg">
 <!-- 카드 뒷면. 앞면(m##_*.svg)과 동일한 viewBox·색상(#ef1d1e)·코너 반경(5)·안쪽 프레임 라인을 공유한다. -->
 <!-- 바깥 빨간 라운드 사각형 (앞면 외곽과 동일, 단 속을 빨강으로 꽉 채움) -->
 <path d="m5 0c-3.3333 0-5 1.6667-5 5v158.2c0 3.3333 1.6667 5 5 5h93.199c3.3333 0 5-1.6667 5-5v-158.2c0-3.3333-1.6667-5-5-5z" fill="#ef1d1e"/>
 <!-- 안쪽 검은 프레임 라인 (앞면과 동일 좌표: 13.3,7.2 / 76.6x139.8 / r7) -->
 <path d="m13.3 7.199c-4.6667 0-7 2.3333-7 7v139.8c0 4.6667 2.3333 7 7 7h76.6c4.6667 0 7-2.3333 7-7v-139.8c0-4.6667-2.3333-7-7-7z" fill="none" stroke="#000" stroke-width="1.2"/>
 <!-- 앱 아이콘 자리. 원점(0,0)이 카드 정중앙(51.6,84.1). 이 그룹 안에 아이콘 path를 넣으면 중앙 정렬됨. -->
 <!-- 권장: 아이콘을 자체 원점 기준 중앙 정렬, 최대 크기 약 56x56 (안쪽 폭 76.6의 ~73%). -->
 <g id="app-icon" transform="translate(51.6 84.1)">
  <!-- 아이콘 삽입 예정 (예: <path d="..." transform="translate(-28 -28) scale(...)"/>) -->
 </g>
</svg>
